<?xml version="1.0" standalone="no"?><!DOCTYPE svg PUBLIC "-//W3C//DTD SVG 1.1//EN" "http://www.w3.org/Graphics/SVG/1.1/DTD/svg11.dtd"><svg t="1682944091020" class="icon" viewBox="0 0 1123 1024" version="1.1" xmlns="http://www.w3.org/2000/svg" p-id="1953" xmlns:xlink="http://www.w3.org/1999/xlink" width="219.3359375" height="200"><path d="M422.829107 675.290579c-112.674687-43.459097-199.911848-138.072343-233.044425-255.411906C78.146634 468.281741 0 579.40147 0 708.861735c0 174.075614 141.062648 315.098391 315.138262 315.098391 73.920336 0 141.780321-25.63688 195.526067-68.258692-55.819024-66.982829-89.549663-153.063738-89.549663-246.839699C421.154537 697.538447 421.87221 686.374642 422.829107 675.290579z" p-id="1954" fill="#42b883"></path><path d="M932.656151 419.798932c-45.7716 162.154265-194.728653 281.567106-371.395864 281.567106-23.324378 0-46.010824-2.432115-68.258692-6.419188-0.239224 4.664876-0.717673 9.210139-0.717673 13.954756 0 174.075614 141.022777 315.098391 315.098391 315.098391 173.995872 0 315.05852-141.022777 315.05852-315.098391C1122.440833 579.40147 1044.294199 468.281741 932.656151 419.798932z" p-id="1955" fill="#42b883"></path><path d="M561.220416 315.098391m-315.098391 0a7.903 7.903 0 1 0 630.196782 0 7.903 7.903 0 1 0-630.196782 0Z" p-id="1956" fill="#42b883"></path></svg>